<mxfile host="app.diagrams.net" modified="2021-04-01T11:24:33.506Z" agent="5.0 (Windows NT 10.0; Win64; x64) AppleWebKit/537.36 (KHTML, like Gecko) Chrome/89.0.4389.90 Safari/537.36" etag="kvGfDRGDR1t5A_BP9mZg" version="14.5.4" type="github">
  <diagram id="C5RBs43oDa-KdzZeNtuy" name="Page-1">
    <mxGraphModel dx="1662" dy="794" grid="1" gridSize="10" guides="1" tooltips="1" connect="1" arrows="1" fold="1" page="1" pageScale="1" pageWidth="827" pageHeight="1169" math="0" shadow="0">
      <root>
        <mxCell id="WIyWlLk6GJQsqaUBKTNV-0" />
        <mxCell id="WIyWlLk6GJQsqaUBKTNV-1" parent="WIyWlLk6GJQsqaUBKTNV-0" />
        <mxCell id="FZvW9mFSP_NeP_rCgOgR-31" value="" style="rounded=0;whiteSpace=wrap;html=1;" parent="WIyWlLk6GJQsqaUBKTNV-1" vertex="1">
          <mxGeometry x="440" y="100" width="120" height="180" as="geometry" />
        </mxCell>
        <mxCell id="FZvW9mFSP_NeP_rCgOgR-23" value="" style="edgeStyle=orthogonalEdgeStyle;rounded=0;orthogonalLoop=1;jettySize=auto;html=1;" parent="WIyWlLk6GJQsqaUBKTNV-1" source="WIyWlLk6GJQsqaUBKTNV-3" edge="1">
          <mxGeometry relative="1" as="geometry">
            <mxPoint x="500" y="98" as="targetPoint" />
          </mxGeometry>
        </mxCell>
        <mxCell id="WIyWlLk6GJQsqaUBKTNV-3" value="project start" style="rounded=1;whiteSpace=wrap;html=1;fontSize=12;glass=0;strokeWidth=1;shadow=0;" parent="WIyWlLk6GJQsqaUBKTNV-1" vertex="1">
          <mxGeometry x="438.59" y="20" width="122.5" height="30" as="geometry" />
        </mxCell>
        <mxCell id="FZvW9mFSP_NeP_rCgOgR-29" value="" style="edgeStyle=orthogonalEdgeStyle;rounded=0;orthogonalLoop=1;jettySize=auto;html=1;" parent="WIyWlLk6GJQsqaUBKTNV-1" source="FZvW9mFSP_NeP_rCgOgR-10" target="FZvW9mFSP_NeP_rCgOgR-31" edge="1">
          <mxGeometry relative="1" as="geometry">
            <mxPoint x="400" y="190" as="targetPoint" />
          </mxGeometry>
        </mxCell>
        <mxCell id="FZvW9mFSP_NeP_rCgOgR-10" value="Data integration" style="rounded=1;whiteSpace=wrap;html=1;" parent="WIyWlLk6GJQsqaUBKTNV-1" vertex="1">
          <mxGeometry x="280" y="165" width="100" height="50" as="geometry" />
        </mxCell>
        <mxCell id="FZvW9mFSP_NeP_rCgOgR-13" value="" style="edgeStyle=orthogonalEdgeStyle;rounded=0;orthogonalLoop=1;jettySize=auto;html=1;" parent="WIyWlLk6GJQsqaUBKTNV-1" source="FZvW9mFSP_NeP_rCgOgR-11" target="FZvW9mFSP_NeP_rCgOgR-10" edge="1">
          <mxGeometry relative="1" as="geometry" />
        </mxCell>
        <mxCell id="FZvW9mFSP_NeP_rCgOgR-11" value="Extra data analysis &amp;amp; collection" style="rounded=1;whiteSpace=wrap;html=1;" parent="WIyWlLk6GJQsqaUBKTNV-1" vertex="1">
          <mxGeometry x="140" y="165" width="110" height="50" as="geometry" />
        </mxCell>
        <mxCell id="FZvW9mFSP_NeP_rCgOgR-42" value="" style="edgeStyle=orthogonalEdgeStyle;rounded=0;orthogonalLoop=1;jettySize=auto;html=1;" parent="WIyWlLk6GJQsqaUBKTNV-1" source="FZvW9mFSP_NeP_rCgOgR-21" edge="1">
          <mxGeometry relative="1" as="geometry">
            <mxPoint x="600" y="255" as="targetPoint" />
          </mxGeometry>
        </mxCell>
        <mxCell id="FZvW9mFSP_NeP_rCgOgR-21" value="customer feedbacks" style="rounded=1;whiteSpace=wrap;html=1;" parent="WIyWlLk6GJQsqaUBKTNV-1" vertex="1">
          <mxGeometry x="690" y="230" width="100" height="50" as="geometry" />
        </mxCell>
        <mxCell id="FZvW9mFSP_NeP_rCgOgR-39" style="edgeStyle=orthogonalEdgeStyle;rounded=0;orthogonalLoop=1;jettySize=auto;html=1;exitX=1;exitY=0.5;exitDx=0;exitDy=0;" parent="WIyWlLk6GJQsqaUBKTNV-1" edge="1">
          <mxGeometry relative="1" as="geometry">
            <mxPoint x="560" y="125" as="targetPoint" />
            <mxPoint x="600" y="125" as="sourcePoint" />
            <Array as="points">
              <mxPoint x="560" y="125" />
              <mxPoint x="560" y="125" />
            </Array>
          </mxGeometry>
        </mxCell>
        <mxCell id="FZvW9mFSP_NeP_rCgOgR-22" value="planning, design" style="rounded=1;whiteSpace=wrap;html=1;" parent="WIyWlLk6GJQsqaUBKTNV-1" vertex="1">
          <mxGeometry x="449.68" y="110" width="100.32" height="30" as="geometry" />
        </mxCell>
        <mxCell id="FZvW9mFSP_NeP_rCgOgR-25" value="implementation" style="rounded=1;whiteSpace=wrap;html=1;" parent="WIyWlLk6GJQsqaUBKTNV-1" vertex="1">
          <mxGeometry x="453.59" y="175" width="92.82" height="30" as="geometry" />
        </mxCell>
        <mxCell id="FZvW9mFSP_NeP_rCgOgR-32" style="edgeStyle=orthogonalEdgeStyle;rounded=0;orthogonalLoop=1;jettySize=auto;html=1;" parent="WIyWlLk6GJQsqaUBKTNV-1" source="FZvW9mFSP_NeP_rCgOgR-27" edge="1">
          <mxGeometry relative="1" as="geometry">
            <mxPoint x="600" y="120" as="targetPoint" />
            <Array as="points">
              <mxPoint x="600" y="255" />
            </Array>
          </mxGeometry>
        </mxCell>
        <mxCell id="FZvW9mFSP_NeP_rCgOgR-27" value="testing" style="rounded=1;whiteSpace=wrap;html=1;" parent="WIyWlLk6GJQsqaUBKTNV-1" vertex="1">
          <mxGeometry x="458.04" y="240" width="83.92" height="30" as="geometry" />
        </mxCell>
        <mxCell id="FZvW9mFSP_NeP_rCgOgR-44" value="feedback" style="text;html=1;strokeColor=none;fillColor=none;align=center;verticalAlign=middle;whiteSpace=wrap;rounded=0;" parent="WIyWlLk6GJQsqaUBKTNV-1" vertex="1">
          <mxGeometry x="630" y="230" width="40" height="20" as="geometry" />
        </mxCell>
        <mxCell id="FZvW9mFSP_NeP_rCgOgR-45" value="micro-adjust" style="text;html=1;strokeColor=none;fillColor=none;align=center;verticalAlign=middle;whiteSpace=wrap;rounded=0;" parent="WIyWlLk6GJQsqaUBKTNV-1" vertex="1">
          <mxGeometry x="610" y="165" width="70" height="20" as="geometry" />
        </mxCell>
        <mxCell id="FZvW9mFSP_NeP_rCgOgR-54" value="" style="edgeStyle=orthogonalEdgeStyle;rounded=0;orthogonalLoop=1;jettySize=auto;html=1;" parent="WIyWlLk6GJQsqaUBKTNV-1" source="FZvW9mFSP_NeP_rCgOgR-46" target="FZvW9mFSP_NeP_rCgOgR-31" edge="1">
          <mxGeometry relative="1" as="geometry" />
        </mxCell>
        <mxCell id="FZvW9mFSP_NeP_rCgOgR-59" value="" style="edgeStyle=orthogonalEdgeStyle;rounded=0;orthogonalLoop=1;jettySize=auto;html=1;" parent="WIyWlLk6GJQsqaUBKTNV-1" source="FZvW9mFSP_NeP_rCgOgR-46" edge="1">
          <mxGeometry relative="1" as="geometry">
            <mxPoint x="230" y="400" as="targetPoint" />
            <Array as="points">
              <mxPoint x="370" y="400" />
              <mxPoint x="370" y="400" />
            </Array>
          </mxGeometry>
        </mxCell>
        <mxCell id="FZvW9mFSP_NeP_rCgOgR-46" value="" style="rounded=0;whiteSpace=wrap;html=1;" parent="WIyWlLk6GJQsqaUBKTNV-1" vertex="1">
          <mxGeometry x="330" y="350" width="340" height="100" as="geometry" />
        </mxCell>
        <mxCell id="FZvW9mFSP_NeP_rCgOgR-53" value="" style="edgeStyle=orthogonalEdgeStyle;rounded=0;orthogonalLoop=1;jettySize=auto;html=1;" parent="WIyWlLk6GJQsqaUBKTNV-1" source="FZvW9mFSP_NeP_rCgOgR-49" target="FZvW9mFSP_NeP_rCgOgR-52" edge="1">
          <mxGeometry relative="1" as="geometry" />
        </mxCell>
        <mxCell id="FZvW9mFSP_NeP_rCgOgR-49" value="Alpha verison" style="rounded=1;whiteSpace=wrap;html=1;" parent="WIyWlLk6GJQsqaUBKTNV-1" vertex="1">
          <mxGeometry x="530" y="370" width="120" height="60" as="geometry" />
        </mxCell>
        <mxCell id="FZvW9mFSP_NeP_rCgOgR-52" value="Beta version" style="whiteSpace=wrap;html=1;rounded=1;" parent="WIyWlLk6GJQsqaUBKTNV-1" vertex="1">
          <mxGeometry x="370" y="370" width="115" height="60" as="geometry" />
        </mxCell>
        <mxCell id="FZvW9mFSP_NeP_rCgOgR-61" value="final version" style="rounded=1;whiteSpace=wrap;html=1;" parent="WIyWlLk6GJQsqaUBKTNV-1" vertex="1">
          <mxGeometry x="150" y="380" width="80" height="40" as="geometry" />
        </mxCell>
        <mxCell id="vBAL-ke4prz63M_j4GsE-0" value="" style="endArrow=classic;html=1;entryX=0.638;entryY=0;entryDx=0;entryDy=0;entryPerimeter=0;" parent="WIyWlLk6GJQsqaUBKTNV-1" target="FZvW9mFSP_NeP_rCgOgR-46" edge="1">
          <mxGeometry width="50" height="50" relative="1" as="geometry">
            <mxPoint x="547" y="280" as="sourcePoint" />
            <mxPoint x="440" y="370" as="targetPoint" />
          </mxGeometry>
        </mxCell>
        <mxCell id="lViyymUoWaHsz7RG8nmT-1" value="" style="edgeStyle=orthogonalEdgeStyle;rounded=0;orthogonalLoop=1;jettySize=auto;html=1;" parent="WIyWlLk6GJQsqaUBKTNV-1" source="lViyymUoWaHsz7RG8nmT-0" target="FZvW9mFSP_NeP_rCgOgR-61" edge="1">
          <mxGeometry relative="1" as="geometry">
            <Array as="points">
              <mxPoint x="185" y="370" />
              <mxPoint x="185" y="370" />
            </Array>
          </mxGeometry>
        </mxCell>
        <mxCell id="lViyymUoWaHsz7RG8nmT-0" value="maintenance" style="rounded=1;whiteSpace=wrap;html=1;" parent="WIyWlLk6GJQsqaUBKTNV-1" vertex="1">
          <mxGeometry x="140" y="280" width="90" height="40" as="geometry" />
        </mxCell>
        <mxCell id="lViyymUoWaHsz7RG8nmT-2" value="function update" style="text;html=1;strokeColor=none;fillColor=none;align=center;verticalAlign=middle;whiteSpace=wrap;rounded=0;" parent="WIyWlLk6GJQsqaUBKTNV-1" vertex="1">
          <mxGeometry x="80" y="340" width="100" height="20" as="geometry" />
        </mxCell>
      </root>
    </mxGraphModel>
  </diagram>
</mxfile>
